<?xml version='1.0' encoding='utf-8'?>
<svg xmlns:inkscape="http://www.inkscape.org/namespaces/inkscape" xmlns:sodipodi="http://sodipodi.sourceforge.net/DTD/sodipodi-0.dtd" xmlns="http://www.w3.org/2000/svg" xmlns:svg="http://www.w3.org/2000/svg" width="200" height="200" version="1.1" id="svg3">
  <sodipodi:namedview id="namedview3" pagecolor="#ffffff" bordercolor="#000000" borderopacity="0.25"/>
  <defs id="defs2">
    </defs>
  <path d="M 10 10 L 10 190 L 190 190 L 190 10 L 10 10 Z" fill="white" id="P4"/><path d="M 10 20 L 10 30 L 20 30 L 40 30 L 60 30 L 80 30 L 100 30 L 120 30 L 140 30 L 160 30 L 180 30 L 190 30 L 190 20 L 180 20 L 160 20 L 140 20 L 120 20 L 100 20 L 80 20 L 60 20 L 40 20 L 20 20 L 10 20 Z M 10 40 L 10 50 L 20 50 L 40 50 L 60 50 L 80 50 L 100 50 L 120 50 L 140 50 L 160 50 L 180 50 L 190 50 L 190 40 L 180 40 L 160 40 L 140 40 L 120 40 L 100 40 L 80 40 L 60 40 L 40 40 L 20 40 L 10 40 Z M 10 60 L 10 70 L 20 70 L 40 70 L 60 70 L 80 70 L 100 70 L 120 70 L 140 70 L 160 70 L 180 70 L 190 70 L 190 60 L 180 60 L 160 60 L 140 60 L 120 60 L 100 60 L 80 60 L 60 60 L 40 60 L 20 60 L 10 60 Z M 10 80 L 10 90 L 20 90 L 40 90 L 60 90 L 80 90 L 100 90 L 120 90 L 140 90 L 160 90 L 180 90 L 190 90 L 190 80 L 180 80 L 160 80 L 140 80 L 120 80 L 100 80 L 80 80 L 60 80 L 40 80 L 20 80 L 10 80 Z M 10 100 L 10 110 L 20 110 L 40 110 L 60 110 L 80 110 L 100 110 L 120 110 L 140 110 L 160 110 L 180 110 L 190 110 L 190 100 L 180 100 L 160 100 L 140 100 L 120 100 L 100 100 L 80 100 L 60 100 L 40 100 L 20 100 L 10 100 Z M 10 120 L 10 130 L 20 130 L 40 130 L 60 130 L 80 130 L 100 130 L 120 130 L 140 130 L 160 130 L 180 130 L 190 130 L 190 120 L 180 120 L 160 120 L 140 120 L 120 120 L 100 120 L 80 120 L 60 120 L 40 120 L 20 120 L 10 120 Z M 10 140 L 10 150 L 20 150 L 40 150 L 60 150 L 80 150 L 100 150 L 120 150 L 140 150 L 160 150 L 180 150 L 190 150 L 190 140 L 180 140 L 160 140 L 140 140 L 120 140 L 100 140 L 80 140 L 60 140 L 40 140 L 20 140 L 10 140 Z M 10 160 L 10 170 L 20 170 L 40 170 L 60 170 L 80 170 L 100 170 L 120 170 L 140 170 L 160 170 L 180 170 L 190 170 L 190 160 L 180 160 L 160 160 L 140 160 L 120 160 L 100 160 L 80 160 L 60 160 L 40 160 L 20 160 L 10 160 Z M 10 180 L 10 190 L 20 190 L 190 190 L 190 180 L 180 180 L 160 180 L 140 180 L 120 180 L 100 180 L 80 180 L 60 180 L 40 180 L 20 180 L 10 180 Z" fill="black" id="P5"/><rect x="10" y="10" width="180" height="180" fill="none" id="rect3"/>
</svg>